<?xml version="1.0" encoding="UTF-8" standalone="no"?><!DOCTYPE svg PUBLIC "-//W3C//DTD SVG 1.1//EN" "http://www.w3.org/Graphics/SVG/1.1/DTD/svg11.dtd"><svg width="100%" height="100%" viewBox="0 0 1495 346" version="1.1" xmlns="http://www.w3.org/2000/svg" xmlns:xlink="http://www.w3.org/1999/xlink" xml:space="preserve" xmlns:serif="http://www.serif.com/" style="fill-rule:evenodd;clip-rule:evenodd;stroke-linejoin:round;stroke-miterlimit:1.41421;"><rect id="logoDML_ab3_horizontal" x="-209.605" y="-157" width="1920" height="672" style="fill:none;"/><g><path d="M273.242,281.521c-21.357,20.65 -50.434,33.358 -82.456,33.358c-65.513,0 -118.702,-53.189 -118.702,-118.702l0,-19.275l49.354,0l0,19.275c0,50.175 40.736,90.911 90.911,90.911c18.887,0 36.438,-5.773 50.98,-15.653l9.913,10.086Zm-168.381,25.914l3.615,-7.015c8.511,3.904 17.726,6.53 27.4,7.63l-1.557,6.224c-10.259,-1.026 -20.135,-3.362 -29.458,-6.839Zm41.415,1.215l-0.003,0.016l-0.071,-0.017l0.074,0.001Zm-75.684,-21.062l7.951,-9.248c6.44,7.194 14.01,13.358 22.426,18.21l-4.545,7.366c-9.331,-4.329 -18.008,-9.834 -25.832,-16.328Zm-9.66,-8.955c-20.65,-21.357 -33.358,-50.434 -33.358,-82.456c0,-65.513 53.189,-118.701 118.702,-118.701l19.276,0l0,49.353l-19.276,0c-50.175,0 -90.91,40.736 -90.91,90.911c0,18.888 5.772,36.438 15.652,50.98l-10.086,9.913Zm221.264,-6.772l-9.247,-7.951c7.194,-6.44 13.358,-14.01 18.21,-22.426l7.366,4.545c-4.329,9.332 -9.835,18.008 -16.329,25.832Zm-91.41,-0.337l-19.276,0l0,-49.353l19.276,0c50.175,0 90.91,-40.736 90.91,-90.911c0,-18.888 -5.772,-36.438 -15.652,-50.98l10.086,-9.913c20.65,21.357 33.357,50.434 33.357,82.456c0,65.513 -53.188,118.701 -118.701,118.701Zm111.258,-33.932l-7.015,-3.615c3.904,-8.511 6.53,-17.726 7.63,-27.4l6.224,1.557c-1.026,10.259 -3.362,20.135 -6.839,29.458Zm1.215,-41.415l0.016,0.003l-0.017,0.071l0.001,-0.074Zm-38.282,-24.079l-49.353,0l0,-19.275c0,-50.175 -40.736,-90.911 -90.911,-90.911c-18.888,0 -36.438,5.773 -50.98,15.653l-9.913,-10.086c21.357,-20.65 50.434,-33.358 82.456,-33.358c65.513,0 118.701,53.189 118.701,118.702l0,19.275Zm-231.174,-19.275l-0.016,-0.003l0.017,-0.071l-0.001,0.074Zm1.215,-41.415l7.015,3.615c-3.904,8.511 -6.53,17.726 -7.63,27.4l-6.224,-1.557c1.026,-10.259 3.362,-20.135 6.839,-29.458Zm19.848,-34.269l9.247,7.951c-7.194,6.44 -13.358,14.01 -18.21,22.426l-7.366,-4.545c4.329,-9.332 9.834,-18.008 16.329,-25.832Zm211.604,-15.727l-7.951,9.248c-6.44,-7.194 -14.01,-13.358 -22.426,-18.21l4.545,-7.366c9.331,4.329 18.008,9.834 25.832,16.328Zm-34.27,-19.847l-3.614,7.015c-8.511,-3.904 -17.726,-6.53 -27.4,-7.63l1.557,-6.224c10.259,1.026 20.135,3.362 29.457,6.839Zm-41.414,-1.215l0.003,-0.016l0.071,0.017l-0.074,-0.001Z" style="fill:#0076a3;"/></g><g><text x="362.23px" y="191.623px" style="font-family:'Avenir-Roman', 'Avenir', sans-serif;font-size:190.146px;fill:#0076a3;">D<tspan x="496.396px 597.065px 684.336px 785.006px 885.675px 949.409px 1013.14px 1107.11px 1150.75px 1194.2px 1274.59px 1375.26px " y="191.623px 191.623px 191.623px 191.623px 191.623px 191.623px 191.623px 191.623px 191.623px 191.623px 191.623px 191.623px ">ecentralized</tspan></text><text x="370.426px" y="297.258px" style="font-family:'Avenir-Book', 'Avenir';font-size:110.918px;fill:#0076a3;">m<tspan x="480.481px 555.364px 626.34px 705.132px 750.547px 829.339px 908.13px 957.56px 1002.98px 1081.77px 1156.65px 1213.68px 1292.48px 1337.89px 1416.68px " y="297.258px 297.258px 297.258px 297.258px 297.258px 297.258px 297.258px 297.258px 297.258px 297.258px 297.258px 297.258px 297.258px 297.258px 297.258px ">achine learning</tspan></text></g></svg>